<?xml version="1.0" encoding="utf-8"?>
<!-- Generator: Adobe Illustrator 13.0.0, SVG Export Plug-In . SVG Version: 6.00 Build 14948)  -->
<!DOCTYPE svg PUBLIC "-//W3C//DTD SVG 1.1//EN" "http://www.w3.org/Graphics/SVG/1.1/DTD/svg11.dtd">
<svg version="1.1" id="Advertising" xmlns="http://www.w3.org/2000/svg" xmlns:xlink="http://www.w3.org/1999/xlink" x="0px"
	 y="0px" width="400px" height="70px" viewBox="0 0 400 70" enable-background="new 0 0 400 70" xml:space="preserve">
<g>
	<path fill="#777777" d="M45.402,42.75l-1.6,5.75h-9.3l10-33.35h13.55l10.15,33.35h-9.1l-1.75-5.75H45.402z M51.402,21.8l-4.1,14.5
		h8.3L51.402,21.8z"/>
	<path fill="#777777" d="M92.552,48.5h-7.35l0.25-4.05h-0.25c-0.5,1.767-1.342,2.925-2.525,3.475
		c-1.184,0.55-2.609,0.825-4.275,0.825c-2.133,0-4.05-0.441-5.75-1.325c-1.7-0.883-2.667-2.541-2.9-4.975
		c-0.034-0.566-0.067-1.134-0.1-1.7c-0.033-0.566-0.05-1.133-0.05-1.7c-0.034-0.565-0.05-1.133-0.05-1.7c0-0.565,0-1.133,0-1.699
		c0-3.299,0.541-5.899,1.625-7.799c1.083-1.9,3.475-2.85,7.175-2.85c1.466,0,2.741,0.233,3.825,0.7
		c1.083,0.467,1.925,1.417,2.525,2.85l0.25-0.05V15.15h7.6V48.5z M77.202,36.3v1.4c0,1.634,0.167,2.95,0.5,3.95s1.466,1.5,3.4,1.5
		c1.633,0,2.708-0.393,3.225-1.176c0.516-0.783,0.775-1.941,0.775-3.476c0-0.101,0-0.2,0-0.3c0-0.102,0-0.2,0-0.301
		c0-0.065,0-0.125,0-0.176c0-0.05,0-0.091,0-0.125c-0.034-0.166-0.05-0.324-0.05-0.475s0-0.291,0-0.425c0-1.767-0.184-3.2-0.55-4.3
		c-0.367-1.1-1.617-1.65-3.75-1.65c-1.733,0-2.758,0.583-3.075,1.75c-0.317,1.167-0.475,2.45-0.475,3.85V36.3z"/>
	<path fill="#777777" d="M113.051,48.5h-12.05l-6.4-23.35h8l4.2,18.3h0.25l3.8-18.3h7.9L113.051,48.5z"/>
	<path fill="#777777" d="M135.2,40.7h7.4c0,3.667-0.942,5.925-2.825,6.774c-1.884,0.851-4.442,1.274-7.675,1.274
		c-4.534,0-7.659-0.767-9.375-2.3c-1.717-1.533-2.575-4.602-2.575-9.2c0-4.433,0.691-7.583,2.075-9.45
		c1.383-1.866,4.392-2.8,9.025-2.8c3.967,0,6.85,0.675,8.65,2.025c1.8,1.35,2.7,4.159,2.7,8.425v2.699h-14.95
		c0,1.768,0.191,3.101,0.575,4c0.383,0.899,1.591,1.351,3.625,1.351c1.066,0,1.883-0.175,2.45-0.524
		c0.566-0.351,0.866-1.092,0.9-2.226V40.7L135.2,40.7z M134.5,31.25c-0.533-0.566-1.45-0.85-2.75-0.85h-0.4
		c-1.633,0.033-2.642,0.333-3.025,0.9c-0.384,0.567-0.575,1.451-0.575,2.65h7.55C135.3,32.717,135.033,31.817,134.5,31.25z"/>
	<path fill="#777777" d="M153.85,25.15l-0.1,3.45h0.35c0.6-1.233,1.333-2.142,2.2-2.725c0.866-0.583,2.016-0.875,3.45-0.875
		c2.866,0,4.566,0.842,5.102,2.525c0.531,1.684,0.832,3.575,0.898,5.675c0,0.1,0,0.192,0,0.275s0,0.175,0,0.275
		c0.033,0.267,0.05,0.542,0.05,0.825c0,0.283,0.017,0.559,0.052,0.825h-6.951c0.033-0.066,0.05-0.15,0.05-0.25s0-0.2,0-0.3
		c0-0.133,0-0.258,0-0.375c0-0.117,0-0.242,0-0.375c0-0.066,0-0.142,0-0.225s0-0.175,0-0.275c-0.034-0.7-0.175-1.341-0.425-1.925
		c-0.25-0.583-0.825-0.875-1.725-0.875c-0.934,0-1.583,0.317-1.95,0.95c-0.367,0.634-0.6,1.333-0.7,2.1
		c0,0.2-0.009,0.409-0.025,0.625c-0.017,0.217-0.025,0.425-0.025,0.625v13.4h-7.6V25.15H153.85z"/>
	<path fill="#777777" d="M187.05,30.65h-8.851v9.45c0,0.102,0,0.185,0,0.25c0,0.067,0.017,0.135,0.05,0.2c0,0.101,0,0.2,0,0.3
		c0,0.102,0,0.2,0,0.301c0.033,0.533,0.142,1.018,0.325,1.449c0.183,0.435,0.607,0.65,1.275,0.65c0.898,0,1.465-0.232,1.699-0.7
		c0.232-0.466,0.366-1.1,0.399-1.899c0-0.133,0-0.274,0-0.426c0-0.148,0.017-0.291,0.05-0.425c0-0.133,0-0.274,0-0.425
		s0-0.291,0-0.425l6.102-0.05c0,0.199,0.008,0.392,0.023,0.574c0.018,0.184,0.025,0.358,0.025,0.524
		c0,0.167,0.008,0.342,0.024,0.524c0.017,0.185,0.024,0.358,0.024,0.524c0,2.9-0.643,4.9-1.926,6
		c-1.283,1.101-3.524,1.65-6.725,1.65c-2.634,0-4.783-0.408-6.449-1.226c-1.668-0.816-2.5-2.759-2.5-5.824v-11h-2.852v-5.5h2.852
		v-4.9h7.6v4.9h8.851v5.502H187.05z"/>
	<path fill="#777777" d="M198.799,20.85h-7.6v-5.7h7.6V20.85z M198.799,48.5h-7.6V25.15h7.6V48.5z"/>
	<path fill="#777777" d="M224.549,31.85h-7.199c-0.033-0.033-0.051-0.066-0.051-0.1c0-0.033-0.009-0.066-0.025-0.1
		c-0.017-0.033-0.023-0.066-0.023-0.1c-0.168-0.766-0.5-1.232-1-1.4c-0.5-0.167-1.066-0.25-1.7-0.25h-1.399
		c-0.7,0.034-1.334,0.125-1.899,0.274c-0.567,0.15-0.899,0.657-1,1.521c0,1.097,0.558,1.754,1.675,1.97
		c1.116,0.216,2.441,0.341,3.975,0.374c0.334,0.034,0.668,0.05,1,0.05c0.334,0,0.684,0.018,1.051,0.05
		c1.9,0.1,3.65,0.532,5.25,1.296c1.602,0.765,2.4,2.51,2.4,5.236c0,3.591-1.176,5.835-3.525,6.733
		c-2.35,0.896-5.008,1.346-7.975,1.346c-3.033,0-5.676-0.342-7.926-1.025c-2.25-0.683-3.375-2.841-3.375-6.475l7.75-0.05
		c0,1.134,0.232,1.858,0.7,2.175c0.466,0.316,1.199,0.475,2.199,0.475h1.601c0.801,0.034,1.524-0.05,2.176-0.25
		c0.65-0.199,0.975-0.785,0.975-1.754c0-1.07-0.324-1.714-0.975-1.931c-0.65-0.218-1.408-0.343-2.275-0.377l-1.551-0.05
		c-2.866,0.033-5.332-0.309-7.398-1.027s-3.102-2.814-3.102-6.292c0-3.442,1.117-5.497,3.352-6.166
		c2.232-0.668,4.717-1.003,7.449-1.003c0.566,0,1.184,0.009,1.852,0.025c0.666,0.017,1.332,0.059,2,0.125
		c1.766,0.167,3.383,0.642,4.85,1.425c1.467,0.783,2.199,2.208,2.199,4.275c0,0.1,0,0.192,0,0.275s0,0.159,0,0.225
		c-0.033,0.1-0.049,0.192-0.049,0.275s0,0.175,0,0.275v-0.05H224.549z"/>
	<path fill="#777777" d="M237.148,20.85h-7.601v-5.7h7.601V20.85z M237.148,48.5h-7.601V25.15h7.601V48.5z"/>
	<path fill="#777777" d="M249.548,25.15v4.25h0.302c0.565-1.566,1.391-2.691,2.475-3.375c1.083-0.683,2.441-1.025,4.074-1.025
		c2.434,0,4.399,0.517,5.899,1.55c1.5,1.034,2.25,2.884,2.25,5.55v16.4h-7.6V34.8c0-0.966-0.158-1.857-0.476-2.675
		c-0.316-0.816-1.074-1.225-2.274-1.225c-1.269,0-2.31,0.309-3.125,0.925c-0.817,0.617-1.226,1.625-1.226,3.025V48.5h-7.601V25.15
		H249.548z"/>
	<path fill="#777777" d="M291.598,48c0,4.533-0.941,7.482-2.824,8.85c-1.885,1.367-5.01,2.051-9.375,2.051
		c-0.5,0-1.019-0.008-1.551-0.024c-0.533-0.019-1.066-0.042-1.601-0.075c-1.367-0.134-2.667-0.458-3.899-0.975
		c-1.232-0.518-2.101-1.426-2.601-2.727c-0.167-0.467-0.292-0.949-0.375-1.449s-0.125-1.018-0.125-1.551
		c0-0.133-0.009-0.273-0.024-0.425c-0.018-0.149-0.024-0.292-0.024-0.425c0-0.1,0-0.209,0-0.325s0-0.225,0-0.325h7.25
		c0,1.268,0.315,2.043,0.95,2.325c0.633,0.283,1.5,0.425,2.6,0.425c1.267,0,2.25-0.19,2.95-0.574c0.7-0.383,1.05-1.293,1.05-2.726
		V44.7h-0.35c-0.5,1.333-1.283,2.3-2.351,2.899c-1.066,0.601-2.284,0.899-3.649,0.899c-2.367,0-4.385-0.491-6.051-1.476
		c-1.666-0.982-2.649-2.774-2.949-5.375c-0.101-0.899-0.168-1.809-0.2-2.726c-0.033-0.916-0.05-1.841-0.05-2.774
		c0-3.267,0.49-5.941,1.475-8.024c0.982-2.083,3.375-3.125,7.176-3.125c1.8,0,3.25,0.284,4.351,0.85c1.1,0.567,1.967,1.733,2.6,3.5
		l0.351-0.05l-0.351-4.15h7.601V48H291.598z M276.048,38.25c0,1.334,0.199,2.4,0.601,3.2c0.4,0.8,1.5,1.2,3.3,1.2
		c1.866,0,2.991-0.45,3.375-1.352c0.383-0.898,0.575-2.031,0.575-3.398v-1.95c0-1.6-0.185-2.858-0.551-3.775
		c-0.366-0.916-1.533-1.375-3.5-1.375c-1.732,0-2.8,0.284-3.199,0.85c-0.4,0.567-0.601,1.65-0.601,3.25v1.45V38.25z"/>
</g>
</svg>
