<?xml version="1.0" encoding="utf-8"?>
<!-- Generator: Adobe Illustrator 13.0.0, SVG Export Plug-In . SVG Version: 6.00 Build 14948)  -->
<!DOCTYPE svg PUBLIC "-//W3C//DTD SVG 1.1//EN" "http://www.w3.org/Graphics/SVG/1.1/DTD/svg11.dtd">
<svg version="1.1" id="Branding" xmlns="http://www.w3.org/2000/svg" xmlns:xlink="http://www.w3.org/1999/xlink" x="0px" y="0px"
	 width="400px" height="70px" viewBox="0 0 400 70" enable-background="new 0 0 400 70" xml:space="preserve">
<g>
	<path fill="#1C1C1C" d="M167.652,15.15h18.15c3.033,0.034,5.45,0.609,7.25,1.725c1.8,1.117,2.7,3.392,2.7,6.825
		c0,1.934-0.258,3.608-0.775,5.025s-1.992,2.325-4.425,2.725v0.25c2.266,0.233,3.792,0.95,4.575,2.15c0.783,1.2,1.175,2.9,1.175,5.1
		c0,3.733-0.742,6.259-2.225,7.575c-1.483,1.314-4.192,1.975-8.125,1.975h-18.3V15.15L167.652,15.15z M182.302,28.5
		c0.133,0.034,0.266,0.05,0.4,0.05c0.133,0,0.25,0,0.35,0c1.066-0.033,1.975-0.175,2.725-0.425s1.125-1.058,1.125-2.425
		c0-1.2-0.209-2.025-0.625-2.475c-0.417-0.45-1.225-0.675-2.425-0.675h-7.25v5.95H182.302z M182.552,41.15
		c1.4,0.033,2.558-0.092,3.475-0.375c0.916-0.283,1.375-1.242,1.375-2.875c0-1.566-0.359-2.492-1.075-2.775
		c-0.717-0.283-1.775-0.425-3.175-0.425h-6.55v6.45H182.552z"/>
	<path fill="#1C1C1C" d="M207.551,25.15l-0.1,3.45h0.35c0.6-1.233,1.333-2.142,2.2-2.725c0.866-0.583,2.017-0.875,3.45-0.875
		c2.867,0,4.566,0.842,5.1,2.525c0.533,1.684,0.833,3.575,0.9,5.675c0,0.1,0,0.192,0,0.275s0,0.175,0,0.275
		c0.033,0.267,0.05,0.542,0.05,0.825c0,0.283,0.017,0.559,0.05,0.825h-6.949c0.032-0.066,0.049-0.15,0.049-0.25s0-0.2,0-0.3
		c0-0.133,0-0.258,0-0.375c0-0.117,0-0.242,0-0.375c0-0.066,0-0.142,0-0.225s0-0.175,0-0.275c-0.032-0.7-0.174-1.341-0.424-1.925
		c-0.25-0.583-0.826-0.875-1.726-0.875c-0.935,0-1.583,0.317-1.95,0.95c-0.367,0.634-0.6,1.333-0.699,2.1
		c0,0.2-0.01,0.409-0.024,0.625c-0.019,0.217-0.025,0.425-0.025,0.625v13.4h-7.6V25.15H207.551z"/>
	<path fill="#1C1C1C" d="M230.352,32.1h-7.701c0-3.433,1.01-5.475,3.025-6.125c2.018-0.65,4.426-0.975,7.225-0.975
		c3.269,0,6.01,0.417,8.227,1.25c2.216,0.833,3.325,3.233,3.325,7.2V48.5h-7.601l0.299-3.45h-0.299
		c-0.201,1.233-0.774,2.108-1.726,2.625c-0.95,0.519-1.992,0.825-3.125,0.925c-0.399,0.066-0.81,0.108-1.226,0.125
		c-0.416,0.019-0.81,0.025-1.174,0.025c-2.334,0-4.234-0.5-5.701-1.5s-2.199-2.768-2.199-5.3c0-3.101,0.8-5.142,2.4-6.125
		c1.6-0.983,3.766-1.475,6.5-1.475c0.133,0,0.273,0,0.424,0c0.149,0,0.293,0,0.426,0c1.033,0.034,2.025,0.2,2.975,0.5
		c0.95,0.3,1.658,0.984,2.125,2.05l0.301-0.051V32.6c0-1.133-0.26-1.908-0.774-2.325c-0.519-0.417-1.358-0.625-2.525-0.625
		c-1.1,0-1.892,0.15-2.375,0.45c-0.481,0.3-0.758,0.983-0.823,2.05V32.1H230.352z M229.352,41.3c0,1.269,0.383,2.009,1.149,2.226
		c0.767,0.219,1.633,0.324,2.601,0.324c0.965,0,1.832-0.141,2.601-0.425c0.767-0.282,1.149-0.991,1.149-2.125
		c0-0.065,0-0.125,0-0.175s0-0.092,0-0.125c0-0.268-0.035-0.518-0.101-0.75c-0.067-0.232-0.2-0.434-0.399-0.6
		c-0.269-0.2-0.576-0.353-0.926-0.45c-0.35-0.101-0.725-0.167-1.125-0.2c-0.267-0.033-0.542-0.05-0.824-0.05
		c-0.285,0-0.543,0-0.774,0c-0.935,0-1.726,0.134-2.375,0.399c-0.649,0.268-0.976,0.934-0.976,2V41.3z"/>
	<path fill="#1C1C1C" d="M256.551,25.15v4.25h0.301c0.565-1.566,1.393-2.691,2.476-3.375c1.082-0.683,2.44-1.025,4.073-1.025
		c2.434,0,4.398,0.517,5.898,1.55c1.5,1.034,2.25,2.884,2.25,5.55v16.4h-7.6V34.8c0-0.966-0.159-1.857-0.477-2.675
		c-0.316-0.816-1.076-1.225-2.275-1.225c-1.268,0-2.309,0.309-3.125,0.925c-0.816,0.617-1.225,1.625-1.225,3.025V48.5h-7.601V25.15
		H256.551z"/>
	<path fill="#1C1C1C" d="M298.602,48.5h-7.352l0.25-4.05h-0.25c-0.5,1.767-1.342,2.925-2.523,3.475
		c-1.185,0.55-2.607,0.825-4.274,0.825c-2.136,0-4.052-0.441-5.75-1.325c-1.7-0.883-2.667-2.541-2.899-4.975
		c-0.033-0.566-0.066-1.134-0.101-1.7s-0.052-1.133-0.052-1.7c-0.031-0.565-0.049-1.133-0.049-1.7c0-0.564,0-1.133,0-1.699
		c0-3.298,0.541-5.898,1.625-7.798c1.082-1.9,3.476-2.85,7.174-2.85c1.469,0,2.742,0.233,3.826,0.7
		c1.082,0.467,1.924,1.417,2.523,2.85L291,28.5V15.15h7.602V48.5z M283.25,36.3v1.4c0,1.634,0.167,2.95,0.5,3.95s1.467,1.5,3.4,1.5
		c1.633,0,2.707-0.394,3.225-1.176c0.518-0.783,0.775-1.941,0.775-3.477c0-0.102,0-0.2,0-0.3c0-0.103,0-0.2,0-0.302
		c0-0.064,0-0.125,0-0.176c0-0.05,0-0.091,0-0.125c-0.033-0.166-0.051-0.324-0.051-0.475s0-0.291,0-0.426
		c0-1.766-0.185-3.199-0.551-4.299c-0.365-1.1-1.615-1.65-3.75-1.65c-1.732,0-2.759,0.583-3.074,1.75
		c-0.316,1.167-0.477,2.45-0.477,3.85L283.25,36.3L283.25,36.3z"/>
	<path fill="#1C1C1C" d="M311.049,20.85h-7.6v-5.7h7.6V20.85z M311.049,48.5h-7.6V25.15h7.6V48.5z"/>
	<path fill="#1C1C1C" d="M323.448,25.15v4.25h0.301c0.565-1.566,1.392-2.691,2.476-3.375c1.082-0.683,2.44-1.025,4.074-1.025
		c2.435,0,4.399,0.517,5.899,1.55c1.5,1.034,2.25,2.884,2.25,5.55v16.4h-7.602V34.8c0-0.966-0.157-1.857-0.475-2.675
		c-0.316-0.816-1.075-1.225-2.275-1.225c-1.268,0-2.309,0.309-3.125,0.925c-0.815,0.617-1.225,1.625-1.225,3.025V48.5h-7.603V25.15
		H323.448z"/>
	<path fill="#1C1C1C" d="M365.498,48c0,4.533-0.941,7.482-2.825,8.85c-1.884,1.368-5.009,2.051-9.375,2.051
		c-0.5,0-1.019-0.008-1.55-0.023c-0.534-0.02-1.066-0.042-1.602-0.075c-1.367-0.134-2.666-0.458-3.898-0.975
		c-1.232-0.519-2.102-1.427-2.602-2.728c-0.166-0.467-0.291-0.949-0.375-1.449c-0.082-0.5-0.125-1.018-0.125-1.551
		c0-0.133-0.009-0.272-0.023-0.425c-0.018-0.149-0.025-0.292-0.025-0.425c0-0.1,0-0.209,0-0.325s0-0.225,0-0.325h7.25
		c0,1.269,0.316,2.043,0.95,2.325c0.634,0.283,1.5,0.425,2.602,0.425c1.267,0,2.25-0.189,2.948-0.574
		c0.7-0.383,1.052-1.293,1.052-2.726V44.7h-0.352c-0.5,1.333-1.282,2.3-2.35,2.899c-1.067,0.601-2.284,0.898-3.65,0.898
		c-2.366,0-4.384-0.491-6.05-1.477c-1.667-0.981-2.65-2.773-2.95-5.375c-0.1-0.898-0.167-1.809-0.2-2.726
		c-0.032-0.916-0.05-1.841-0.05-2.774c0-3.267,0.491-5.94,1.477-8.023c0.981-2.083,3.375-3.125,7.176-3.125
		c1.8,0,3.25,0.284,4.35,0.85c1.101,0.567,1.967,1.733,2.601,3.5l0.352-0.05l-0.352-4.15h7.602V48H365.498z M349.948,38.25
		c0,1.334,0.198,2.4,0.6,3.2c0.402,0.8,1.5,1.2,3.3,1.2c1.866,0,2.991-0.45,3.375-1.353c0.384-0.897,0.575-2.03,0.575-3.397v-1.95
		c0-1.6-0.184-2.858-0.55-3.775c-0.367-0.916-1.534-1.375-3.5-1.375c-1.732,0-2.8,0.284-3.2,0.85c-0.398,0.567-0.6,1.65-0.6,3.25
		v1.45V38.25z"/>
</g>
</svg>
