<?xml version="1.0" encoding="utf-8"?>
<!-- Generator: Adobe Illustrator 13.0.0, SVG Export Plug-In . SVG Version: 6.00 Build 14948)  -->
<!DOCTYPE svg PUBLIC "-//W3C//DTD SVG 1.1//EN" "http://www.w3.org/Graphics/SVG/1.1/DTD/svg11.dtd">
<svg version="1.1" id="Layer_2" xmlns="http://www.w3.org/2000/svg" xmlns:xlink="http://www.w3.org/1999/xlink" x="0px" y="0px"
	 width="200px" height="200px" viewBox="0 0 200 200" enable-background="new 0 0 200 200" xml:space="preserve">
<radialGradient id="SVGID_1_" cx="100" cy="1.0063" r="197.4937" gradientUnits="userSpaceOnUse">
	<stop  offset="0.2143" style="stop-color:#FF0000"/>
	<stop  offset="0.5659" style="stop-color:#A20000"/>
	<stop  offset="1" style="stop-color:#2B0000"/>
	<stop  offset="1" style="stop-color:#190000"/>
	<stop  offset="1" style="stop-color:#000000"/>
</radialGradient>
<circle fill="url(#SVGID_1_)" cx="100" cy="100.006" r="99"/>
<g>
	<path fill="#FF0000" d="M189.1,100.006c0-49.208-39.892-89.1-89.1-89.1c-49.208,0-89.1,39.892-89.1,89.1
		c0,13.787,3.133,26.841,8.724,38.494h160.752C185.967,126.848,189.1,113.793,189.1,100.006z"/>
</g>
<g>
	<path fill="#CCCCCC" d="M89.324,82.412V93.5h-8.592V82.412L69.404,61.484h9.792l5.712,12.336h0.288L91.1,61.484h9.888
		L89.324,82.412z"/>
	<path fill="#CCCCCC" d="M99.572,73.028c1.52-1.392,4.264-2.088,8.232-2.088c4.096,0,7.096,0.561,9,1.68
		c1.903,1.121,2.856,3.968,2.856,8.544c0,4.289-0.488,7.457-1.465,9.504c-0.977,2.048-4.008,3.072-9.096,3.072
		c-3.969,0-6.928-0.576-8.88-1.728c-1.952-1.152-2.928-3.952-2.928-8.4v-2.496C97.292,77.116,98.052,74.42,99.572,73.028z
		 M104.636,83.372c0,1.536,0.216,2.752,0.647,3.648c0.433,0.896,1.528,1.344,3.289,1.344c1.504,0,2.496-0.367,2.976-1.104
		c0.479-0.735,0.735-1.807,0.769-3.216c0-0.256,0-0.52,0-0.792c0-0.271,0.016-0.536,0.047-0.792c0-0.256,0-0.52,0-0.792
		c0-0.271,0-0.536,0-0.792c0-1.567-0.224-2.712-0.672-3.432c-0.448-0.72-1.504-1.08-3.168-1.08c-1.824,0-2.928,0.464-3.312,1.392
		c-0.384,0.929-0.576,2.225-0.576,3.888v0.624V83.372z"/>
	<path fill="#CCCCCC" d="M143.996,93.5h-7.2l0.239-4.272h-0.336c-0.512,1.632-1.336,2.792-2.472,3.48
		c-1.136,0.688-2.536,1.032-4.2,1.032c-2.465,0-4.328-0.616-5.592-1.848c-1.264-1.231-1.896-3.096-1.896-5.592V71.084h7.297V83.9
		c0,1.121,0.176,2.096,0.527,2.928c0.352,0.833,1.168,1.248,2.448,1.248s2.248-0.368,2.904-1.104
		c0.655-0.736,0.983-1.711,0.983-2.928v-1.2v-11.76h7.297V93.5z"/>
	<path fill="#CCCCCC" d="M155.467,71.084l-0.096,3.312h0.336c0.576-1.184,1.279-2.056,2.112-2.616
		c0.832-0.559,1.937-0.84,3.312-0.84c2.752,0,4.385,0.809,4.896,2.424c0.512,1.617,0.799,3.432,0.864,5.448c0,0.096,0,0.185,0,0.264
		c0,0.08,0,0.168,0,0.264c0.031,0.257,0.048,0.521,0.048,0.792c0,0.272,0.016,0.537,0.048,0.792h-6.672
		c0.031-0.063,0.048-0.144,0.048-0.24c0-0.096,0-0.192,0-0.288c0-0.127,0-0.248,0-0.36c0-0.112,0-0.232,0-0.36
		c0-0.063,0-0.136,0-0.216c0-0.08,0-0.168,0-0.264c-0.032-0.672-0.168-1.288-0.408-1.848c-0.24-0.56-0.791-0.84-1.656-0.84
		c-0.896,0-1.52,0.305-1.871,0.912c-0.354,0.608-0.576,1.28-0.672,2.016c0,0.192-0.009,0.392-0.024,0.6
		c-0.017,0.208-0.024,0.408-0.024,0.6V93.5h-7.295V71.084H155.467z"/>
</g>
<g>
	<path fill="#FFFFFF" d="M51.504,43.247c0-0.519,0.013-1.032,0.038-1.539c0.025-0.506,0.063-1.02,0.114-1.539
		c0.051-0.519,0.114-1.032,0.19-1.539c0.481-2.837,1.773-4.674,3.876-5.51c2.103-0.836,4.37-1.279,6.802-1.33
		c0.126,0,0.253,0,0.38,0c0.126,0,0.253,0,0.38,0c4.382,0,7.448,0.741,9.196,2.223c1.748,1.482,2.622,4.516,2.622,9.101
		c0,4.688-0.513,8.246-1.539,10.678s-4.389,3.648-10.089,3.648c-0.406,0-0.824-0.006-1.254-0.019
		c-0.431-0.013-0.862-0.032-1.292-0.057c-1.926-0.076-3.737-0.468-5.434-1.178c-1.698-0.709-2.85-2.128-3.458-4.256
		c-0.254-0.861-0.406-1.735-0.456-2.622c-0.051-0.887-0.076-1.773-0.076-2.66v-1.9C51.504,44.267,51.504,43.767,51.504,43.247z
		 M58.458,44.634v1.52c0,1.799,0.19,3.167,0.57,4.104c0.38,0.938,1.621,1.406,3.724,1.406c2.331,0,3.806-0.374,4.427-1.121
		c0.62-0.747,0.931-2.197,0.931-4.351c0-0.304,0-0.608,0-0.912c0-0.304,0.013-0.62,0.038-0.95c0-0.304,0-0.608,0-0.912
		s0-0.608,0-0.912c0-1.697-0.241-2.938-0.722-3.724c-0.481-0.785-1.634-1.178-3.458-1.178c-2.635,0-4.199,0.355-4.693,1.064
		c-0.494,0.709-0.767,2.66-0.817,5.852c0,0.025,0,0.051,0,0.076c0,0.025,0,0.051,0,0.076V44.634z"/>
	<path fill="#FFFFFF" d="M83.651,39.504v3.23h0.228c0.431-1.19,1.058-2.045,1.881-2.565c0.823-0.519,1.855-0.779,3.097-0.779
		c1.849,0,3.344,0.393,4.484,1.178c1.14,0.786,1.71,2.192,1.71,4.218V57.25h-5.776V46.838c0-0.734-0.121-1.412-0.361-2.033
		c-0.241-0.621-0.817-0.931-1.729-0.931c-0.963,0-1.754,0.234-2.375,0.703c-0.621,0.469-0.931,1.235-0.931,2.299V57.25h-5.776
		V39.504H83.651z"/>
</g>
<g>
	<path fill="#FFFFFF" d="M76.506,128.25H65.242l0.832-32.704h-0.32L55.13,128.25h-9.856l-10.88-32.704H34.01l0.96,32.704H23.706
		V85.562h18.048l8.128,26.816h0.448l7.68-26.816h18.496V128.25z"/>
	<path fill="#FFFFFF" d="M93.338,107.258h-9.856c0-4.395,1.29-7.008,3.872-7.84c2.581-0.832,5.664-1.248,9.248-1.248
		c4.181,0,7.69,0.534,10.528,1.6c2.837,1.067,4.256,4.139,4.256,9.216v19.264h-9.728l0.384-4.416h-0.384
		c-0.256,1.579-0.992,2.699-2.208,3.359c-1.216,0.662-2.55,1.057-4,1.185c-0.512,0.085-1.035,0.138-1.568,0.16
		c-0.534,0.021-1.035,0.032-1.504,0.032c-2.987,0-5.419-0.641-7.296-1.92c-1.878-1.28-2.816-3.541-2.816-6.784
		c0-3.968,1.024-6.581,3.072-7.841c2.048-1.258,4.821-1.887,8.32-1.887c0.17,0,0.352,0,0.544,0c0.192,0,0.373,0,0.544,0
		c1.322,0.043,2.592,0.256,3.808,0.639c1.216,0.385,2.122,1.26,2.72,2.625l0.385-0.064v-5.439c0-1.45-0.331-2.442-0.992-2.977
		c-0.662-0.533-1.739-0.8-3.232-0.8c-1.408,0-2.422,0.192-3.04,0.576c-0.619,0.384-0.971,1.259-1.056,2.624V107.258z
		 M92.058,119.034c0,1.622,0.49,2.571,1.472,2.848c0.981,0.278,2.09,0.416,3.328,0.416c1.237,0,2.346-0.181,3.328-0.544
		c0.981-0.361,1.472-1.27,1.472-2.72c0-0.085,0-0.16,0-0.224c0-0.064,0-0.117,0-0.16c0-0.342-0.043-0.662-0.129-0.961
		c-0.086-0.297-0.256-0.553-0.512-0.768c-0.342-0.256-0.736-0.447-1.184-0.576c-0.448-0.128-0.928-0.213-1.44-0.256
		c-0.342-0.042-0.694-0.064-1.056-0.064c-0.363,0-0.694,0-0.992,0c-1.195,0-2.208,0.172-3.04,0.513
		c-0.832,0.342-1.248,1.194-1.248,2.56V119.034z"/>
	<path fill="#FFFFFF" d="M126.938,98.362l-0.128,4.416h0.448c0.768-1.577,1.706-2.74,2.816-3.487c1.108-0.746,2.58-1.12,4.416-1.12
		c3.668,0,5.844,1.078,6.527,3.232c0.682,2.154,1.066,4.576,1.152,7.264c0,0.128,0,0.246,0,0.352c0,0.107,0,0.225,0,0.353
		c0.041,0.342,0.063,0.694,0.063,1.056c0,0.363,0.021,0.715,0.064,1.057h-8.896c0.041-0.086,0.063-0.192,0.063-0.32s0-0.256,0-0.385
		c0-0.17,0-0.329,0-0.479c0-0.149,0-0.31,0-0.479c0-0.086,0-0.182,0-0.289c0-0.105,0-0.223,0-0.352
		c-0.043-0.896-0.224-1.717-0.544-2.464c-0.32-0.746-1.057-1.12-2.208-1.12c-1.195,0-2.027,0.406-2.496,1.217
		c-0.47,0.811-0.769,1.707-0.896,2.688c0,0.256-0.012,0.523-0.033,0.8c-0.021,0.278-0.031,0.544-0.031,0.8v17.152h-9.729V98.362
		H126.938z"/>
	<path fill="#FFFFFF" d="M155.737,109.626h1.728l5.889-11.264h10.752l-8.448,14.336l10.368,15.552h-11.393l-7.168-12.225h-1.728
		v12.225h-9.728V97.995h9.728V109.626z"/>
</g>
<g>
	<path fill="#CCCCCC" d="M46.486,161.834v-15.996h7.863c2.234,0,3.799,0.488,4.693,1.465s1.342,2.688,1.342,5.133
		c0,3.992-0.359,6.557-1.078,7.693s-2.34,1.705-4.863,1.705H46.486z M49.521,159.279h4.324c1.453,0,2.393-0.334,2.818-1.002
		s0.639-2.143,0.639-4.424c0-2.359-0.191-3.859-0.574-4.5s-1.281-0.961-2.695-0.961h-4.512V159.279z"/>
	<path fill="#CCCCCC" d="M76.937,158.248h2.695v0.434c0,2.188-1.641,3.281-4.922,3.281c-2.227,0-3.684-0.379-4.371-1.137
		s-1.031-2.363-1.031-4.816c0-2.18,0.359-3.645,1.078-4.395s2.121-1.125,4.207-1.125c2,0,3.34,0.365,4.02,1.096
		s1.02,2.166,1.02,4.307v0.82H72.05c-0.016,0.25-0.023,0.414-0.023,0.492c0,1.102,0.17,1.836,0.51,2.203s1.018,0.551,2.033,0.551
		c0.984,0,1.625-0.107,1.922-0.322S76.937,158.959,76.937,158.248z M76.96,155.072l-0.012-0.445c0-0.891-0.154-1.469-0.463-1.734
		s-0.979-0.398-2.01-0.398c-1,0-1.65,0.16-1.951,0.48s-0.451,1.02-0.451,2.098H76.96z"/>
	<path fill="#CCCCCC" d="M98.421,153.713h-2.625c-0.016-0.094-0.027-0.164-0.035-0.211c-0.055-0.539-0.209-0.875-0.463-1.008
		s-0.869-0.199-1.846-0.199c-1.398,0-2.098,0.453-2.098,1.359c0,0.617,0.123,0.984,0.369,1.102s1.08,0.211,2.502,0.281
		c1.914,0.094,3.16,0.348,3.738,0.762s0.867,1.262,0.867,2.543c0,1.367-0.385,2.314-1.154,2.842s-2.15,0.791-4.143,0.791
		c-1.914,0-3.223-0.238-3.926-0.715s-1.055-1.367-1.055-2.672v-0.281h2.789c-0.039,0.156-0.063,0.281-0.07,0.375
		c-0.109,0.992,0.656,1.488,2.297,1.488c1.695,0,2.543-0.492,2.543-1.477c0-0.945-0.531-1.418-1.594-1.418
		c-2.398,0-3.979-0.227-4.74-0.68s-1.143-1.395-1.143-2.824c0-1.281,0.348-2.148,1.043-2.602s2.031-0.68,4.008-0.68
		c1.867,0,3.123,0.219,3.768,0.656S98.421,152.439,98.421,153.713z"/>
	<path fill="#CCCCCC" d="M110.824,145.838v2.238h-2.684v-2.238H110.824z M110.824,150.631v11.203h-2.684v-11.203H110.824z"/>
	<path fill="#CCCCCC" d="M130.681,150.631v11.414c0,1.828-0.369,3.082-1.107,3.762s-2.1,1.02-4.084,1.02
		c-1.922,0-3.207-0.258-3.855-0.773s-0.973-1.535-0.973-3.059h2.602c0,0.727,0.137,1.193,0.41,1.4s0.883,0.311,1.828,0.311
		c1.664,0,2.496-0.688,2.496-2.063v-2.52l-0.059-0.012c-0.477,1.195-1.57,1.793-3.281,1.793c-1.695,0-2.854-0.41-3.475-1.23
		s-0.932-2.352-0.932-4.594c0-2.109,0.311-3.566,0.932-4.371s1.748-1.207,3.381-1.207c1.781,0,2.949,0.66,3.504,1.98h0.059
		l-0.129-1.852H130.681z M125.396,152.623c-1.031,0-1.693,0.209-1.986,0.627s-0.439,1.369-0.439,2.854
		c0,1.578,0.146,2.586,0.439,3.023s0.967,0.656,2.021,0.656s1.738-0.225,2.051-0.674s0.469-1.443,0.469-2.982
		c0-1.477-0.156-2.43-0.469-2.859S126.474,152.623,125.396,152.623z"/>
	<path fill="#CCCCCC" d="M140.518,150.631h2.66l-0.105,1.887l0.059,0.012c0.523-1.352,1.695-2.027,3.516-2.027
		c2.648,0,3.973,1.234,3.973,3.703v7.629h-2.684v-6.75v-0.422l-0.059-0.785c-0.125-0.836-0.781-1.254-1.969-1.254
		c-1.805,0-2.707,0.855-2.707,2.566v6.645h-2.684V150.631z"/>
</g>
</svg>
