<?xml version="1.0" encoding="utf-8"?>
<!-- Generator: Adobe Illustrator 13.0.0, SVG Export Plug-In . SVG Version: 6.00 Build 14948)  -->
<!DOCTYPE svg PUBLIC "-//W3C//DTD SVG 1.1//EN" "http://www.w3.org/Graphics/SVG/1.1/DTD/svg11.dtd">
<svg version="1.1" id="Layer_1" xmlns="http://www.w3.org/2000/svg" xmlns:xlink="http://www.w3.org/1999/xlink" x="0px" y="0px"
	 width="200px" height="200px" viewBox="0 0 200 200" enable-background="new 0 0 200 200" xml:space="preserve">
<g id="Layer_1_copy_3">
	<g>
		
			<radialGradient id="SVGID_1_" cx="201.5166" cy="7.5391" r="198.6019" gradientTransform="matrix(1 0 0 -1 -101 8)" gradientUnits="userSpaceOnUse">
			<stop  offset="0.2143" style="stop-color:#EC2224"/>
			<stop  offset="0.5659" style="stop-color:#A11D21"/>
			<stop  offset="1" style="stop-color:#2A0F0F"/>
			<stop  offset="1" style="stop-color:#1C0B0C"/>
			<stop  offset="1" style="stop-color:#000000"/>
		</radialGradient>
		<circle fill="url(#SVGID_1_)" cx="100.516" cy="100.017" r="99.555"/>
		<g>
			<path fill="#EC2224" d="M190.117,100.017c0-49.484-40.117-89.6-89.602-89.6c-49.483,0-89.6,40.115-89.6,89.6
				c0,13.864,3.151,26.993,8.773,38.709h161.654C186.965,127.01,190.117,113.881,190.117,100.017z"/>
		</g>
		<g>
			<path fill="#CDCCCB" d="M89.781,82.325v11.15h-8.641v-11.15L69.749,61.279h9.846l5.745,12.405h0.289l5.938-12.405h9.945
				L89.781,82.325z"/>
			<path fill="#CDCCCB" d="M100.087,72.887c1.526-1.399,4.288-2.1,8.278-2.1c4.119,0,7.135,0.564,9.051,1.69
				c1.912,1.127,2.871,3.989,2.871,8.592c0,4.313-0.49,7.499-1.473,9.557c-0.982,2.06-4.029,3.09-9.146,3.09
				c-3.992,0-6.969-0.579-8.932-1.737c-1.962-1.159-2.944-3.975-2.944-8.448v-2.51C97.793,76.999,98.558,74.288,100.087,72.887z
				 M105.18,83.29c0,1.545,0.215,2.768,0.648,3.669c0.438,0.901,1.537,1.352,3.309,1.352c1.512,0,2.512-0.369,2.992-1.11
				c0.482-0.739,0.74-1.817,0.773-3.234c0-0.257,0-0.522,0-0.796c0-0.272,0.016-0.539,0.047-0.797c0-0.257,0-0.522,0-0.796
				s0-0.539,0-0.797c0-1.576-0.223-2.728-0.676-3.451c-0.449-0.724-1.512-1.086-3.186-1.086c-1.834,0-2.943,0.467-3.33,1.399
				c-0.387,0.935-0.578,2.237-0.578,3.91v0.628V83.29z"/>
			<path fill="#CDCCCB" d="M144.76,93.475h-7.24l0.24-4.297h-0.338c-0.516,1.642-1.344,2.809-2.486,3.5s-2.549,1.038-4.223,1.038
				c-2.479,0-4.354-0.62-5.623-1.858c-1.273-1.238-1.906-3.113-1.906-5.624V70.933h7.336v12.888c0,1.127,0.176,2.107,0.531,2.944
				c0.354,0.838,1.174,1.255,2.461,1.255s2.26-0.37,2.92-1.109c0.658-0.741,0.99-1.722,0.99-2.945v-1.207V70.933h7.336v22.542
				H144.76z"/>
			<path fill="#CDCCCB" d="M156.295,70.933l-0.096,3.33h0.336c0.58-1.19,1.289-2.067,2.125-2.63s1.947-0.846,3.33-0.846
				c2.768,0,4.41,0.814,4.924,2.438c0.516,1.626,0.805,3.451,0.867,5.479c0,0.097,0,0.186,0,0.266s0,0.169,0,0.265
				c0.033,0.259,0.051,0.524,0.051,0.797c0,0.273,0.016,0.54,0.047,0.796h-6.709c0.031-0.063,0.049-0.144,0.049-0.241
				c0-0.097,0-0.192,0-0.289c0-0.128,0-0.25,0-0.362s0-0.233,0-0.362c0-0.063,0-0.137,0-0.217c0-0.081,0-0.169,0-0.266
				c-0.031-0.676-0.168-1.295-0.41-1.858s-0.797-0.845-1.666-0.845c-0.9,0-1.529,0.307-1.881,0.917
				c-0.355,0.611-0.58,1.288-0.676,2.027c0,0.193-0.01,0.395-0.023,0.604c-0.02,0.209-0.025,0.41-0.025,0.604v12.937h-7.336V70.933
				H156.295z"/>
		</g>
		<g>
			<path fill="#FFFFFF" d="M51.748,42.94c0-0.522,0.014-1.038,0.038-1.548c0.025-0.509,0.064-1.026,0.115-1.548
				s0.114-1.037,0.19-1.548c0.484-2.853,1.783-4.7,3.899-5.54c2.114-0.841,4.394-1.287,6.839-1.338c0.127,0,0.255,0,0.383,0
				c0.126,0,0.254,0,0.382,0c4.406,0,7.49,0.745,9.248,2.235s2.636,4.541,2.636,9.152c0,4.714-0.516,8.292-1.548,10.737
				c-1.031,2.446-4.413,3.669-10.145,3.669c-0.408,0-0.829-0.006-1.261-0.02c-0.435-0.013-0.868-0.032-1.301-0.057
				c-1.937-0.077-3.757-0.471-5.464-1.185c-1.708-0.713-2.865-2.141-3.478-4.28c-0.255-0.866-0.408-1.745-0.458-2.637
				c-0.052-0.892-0.077-1.783-0.077-2.675v-1.911C51.748,43.965,51.748,43.462,51.748,42.94z M58.741,44.334v1.528
				c0,1.81,0.191,3.185,0.573,4.127c0.383,0.943,1.63,1.414,3.745,1.414c2.344,0,3.828-0.376,4.452-1.127
				c0.623-0.752,0.936-2.21,0.936-4.376c0-0.306,0-0.611,0-0.917s0.014-0.623,0.039-0.955c0-0.306,0-0.611,0-0.917s0-0.611,0-0.918
				c0-1.706-0.242-2.954-0.727-3.744c-0.483-0.789-1.644-1.185-3.478-1.185c-2.649,0-4.222,0.356-4.719,1.069
				s-0.771,2.676-0.822,5.886c0,0.024,0,0.051,0,0.076s0,0.051,0,0.076V44.334z"/>
			<path fill="#FFFFFF" d="M84.075,39.175v3.248h0.229c0.435-1.196,1.064-2.056,1.892-2.579c0.828-0.521,1.866-0.783,3.115-0.783
				c1.859,0,3.362,0.396,4.509,1.185c1.146,0.79,1.72,2.204,1.72,4.242v12.533h-5.809V46.55c0-0.737-0.121-1.42-0.363-2.044
				s-0.82-0.937-1.738-0.937c-0.968,0-1.764,0.235-2.388,0.707c-0.625,0.472-0.938,1.242-0.938,2.313v10.432h-5.808V39.175H84.075z"
				/>
		</g>
		<g>
			<path fill="#FFFFFF" d="M76.891,128.42H65.563L66.4,95.532h-0.322L55.395,128.42h-9.912L34.543,95.532h-0.387l0.966,32.888
				H23.795V85.493h18.148l8.174,26.966h0.451l7.723-26.966h18.6V128.42z"/>
			<path fill="#FFFFFF" d="M93.817,107.311h-9.911c0-4.422,1.296-7.048,3.893-7.884c2.597-0.837,5.696-1.256,9.3-1.256
				c4.206,0,7.733,0.537,10.589,1.609c2.852,1.074,4.279,4.162,4.279,9.269v19.371h-9.783l0.387-4.441h-0.387
				c-0.258,1.588-0.996,2.715-2.22,3.379c-1.223,0.664-2.564,1.063-4.022,1.191c-0.516,0.084-1.041,0.137-1.577,0.16
				c-0.537,0.02-1.04,0.031-1.513,0.031c-3.004,0-5.449-0.643-7.337-1.93c-1.889-1.287-2.832-3.561-2.832-6.822
				c0-3.99,1.03-6.619,3.09-7.885c2.061-1.266,4.848-1.898,8.367-1.898c0.171,0,0.354,0,0.547,0s0.375,0,0.547,0
				c1.329,0.045,2.606,0.258,3.83,0.645c1.222,0.387,2.132,1.266,2.733,2.639l0.389-0.064v-5.471c0-1.457-0.334-2.455-0.998-2.994
				c-0.666-0.535-1.749-0.803-3.25-0.803c-1.416,0-2.436,0.193-3.058,0.58c-0.623,0.385-0.977,1.266-1.062,2.637L93.817,107.311
				L93.817,107.311z M92.53,119.15c0,1.633,0.492,2.586,1.479,2.865s2.103,0.418,3.347,0.418c1.245,0,2.359-0.182,3.347-0.547
				c0.988-0.363,1.48-1.275,1.48-2.736c0-0.084,0-0.16,0-0.223c0-0.066,0-0.119,0-0.162c0-0.344-0.043-0.666-0.129-0.967
				c-0.086-0.297-0.258-0.557-0.516-0.773c-0.344-0.256-0.738-0.447-1.19-0.578c-0.451-0.129-0.934-0.215-1.448-0.258
				c-0.344-0.043-0.697-0.063-1.062-0.063s-0.698,0-0.997,0c-1.202,0-2.222,0.172-3.058,0.516c-0.837,0.344-1.256,1.199-1.256,2.574
				v-0.066H92.53z"/>
			<path fill="#FFFFFF" d="M127.605,98.364l-0.129,4.439h0.451c0.771-1.584,1.715-2.753,2.832-3.504
				c1.113-0.75,2.596-1.127,4.439-1.127c3.689,0,5.879,1.085,6.566,3.249c0.684,2.168,1.07,4.602,1.156,7.307
				c0,0.129,0,0.248,0,0.354c0,0.107,0,0.227,0,0.355c0.043,0.344,0.064,0.699,0.064,1.063s0.021,0.719,0.064,1.063h-8.945
				c0.039-0.088,0.063-0.193,0.063-0.322s0-0.256,0-0.389c0-0.17,0-0.328,0-0.48c0-0.148,0-0.313,0-0.48c0-0.086,0-0.184,0-0.291
				s0-0.225,0-0.354c-0.043-0.902-0.227-1.727-0.547-2.479c-0.322-0.752-1.064-1.127-2.221-1.127c-1.201,0-2.039,0.408-2.51,1.225
				c-0.473,0.814-0.773,1.717-0.902,2.703c0,0.256-0.012,0.525-0.031,0.803c-0.021,0.281-0.031,0.547-0.031,0.805v17.25h-9.785
				v-30.06H127.605z"/>
			<path fill="#FFFFFF" d="M156.566,109.689h1.738l5.922-11.326h10.813l-8.496,14.416l10.426,15.641h-11.457l-7.207-12.293h-1.738
				v12.293h-9.783V97.995h9.783V109.689z"/>
		</g>
	</g>
	<g>
		<path fill="#CDCCCB" d="M51.216,161.855h3.117v0.451l-0.191,1.982c-0.383,1.805-2.251,2.707-5.605,2.707
			c-2.461,0-4.097-0.443-4.908-1.334c-0.812-0.887-1.217-2.676-1.217-5.365c0-2.625,0.405-4.393,1.217-5.305s2.388-1.367,4.73-1.367
			c2.261,0,3.792,0.33,4.594,0.99c0.802,0.662,1.203,1.918,1.203,3.768h-3.104c0-1.521-0.88-2.283-2.639-2.283
			c-1.249,0-2.032,0.242-2.352,0.725s-0.479,1.668-0.479,3.555c0,1.822,0.176,2.969,0.526,3.439c0.351,0.469,1.21,0.703,2.577,0.703
			c1.075,0,1.766-0.162,2.071-0.484C51.063,163.713,51.216,162.986,51.216,161.855z"/>
		<path fill="#CDCCCB" d="M59.512,153.775h3.131l-0.191,1.832l0.068,0.014c0.747-1.367,1.923-2.051,3.527-2.051
			c2.297,0,3.445,1.449,3.445,4.348v0.916h-2.953c0.036-0.355,0.055-0.588,0.055-0.697c0-1.395-0.542-2.092-1.627-2.092
			c-1.55,0-2.324,1.035-2.324,3.104v7.697h-3.131V153.775z"/>
		<path fill="#CDCCCB" d="M82.45,162.662h3.145v0.506c0,2.553-1.914,3.828-5.742,3.828c-2.598,0-4.298-0.443-5.1-1.326
			s-1.203-2.758-1.203-5.619c0-2.543,0.419-4.252,1.258-5.127s2.475-1.313,4.908-1.313c2.333,0,3.896,0.426,4.689,1.277
			c0.793,0.854,1.189,2.527,1.189,5.025v0.957h-8.846c-0.019,0.291-0.027,0.482-0.027,0.574c0,1.285,0.198,2.143,0.595,2.57
			s1.188,0.643,2.372,0.643c1.148,0,1.896-0.125,2.242-0.375C82.277,164.031,82.45,163.49,82.45,162.662z M82.478,158.957
			l-0.014-0.52c0-1.039-0.18-1.713-0.54-2.023s-1.142-0.465-2.345-0.465c-1.167,0-1.926,0.186-2.276,0.561s-0.526,1.189-0.526,2.447
			H82.478z"/>
		<path fill="#CDCCCB" d="M94.261,157.563h-3.199c0-1.568,0.364-2.615,1.094-3.145s2.174-0.793,4.334-0.793
			c2.352,0,3.942,0.322,4.772,0.971c0.828,0.648,1.242,1.883,1.242,3.705v8.545h-3.13l0.15-1.791l-0.082-0.014
			c-0.602,1.305-1.991,1.955-4.17,1.955c-3.163,0-4.744-1.346-4.744-4.033c0-2.715,1.618-4.074,4.854-4.074
			c2.16,0,3.473,0.496,3.938,1.49h0.055v-2.119c0-1.02-0.178-1.697-0.533-2.031c-0.355-0.332-1.085-0.498-2.188-0.498
			C95.059,155.73,94.261,156.342,94.261,157.563z M96.353,160.994c-1.769,0-2.652,0.609-2.652,1.832
			c0,0.848,0.183,1.402,0.547,1.668s1.13,0.396,2.297,0.396c1.905,0,2.857-0.643,2.857-1.928
			C99.401,161.65,98.385,160.994,96.353,160.994z"/>
		<path fill="#CDCCCB" d="M111.826,153.775h5.031v2.379h-5.031v6.563c0,1.211,0.459,1.818,1.381,1.818
			c1.012,0,1.518-0.732,1.518-2.201v-0.52h2.666v0.656c0,0.602-0.02,1.117-0.055,1.545c-0.172,1.996-1.66,2.994-4.457,2.994
			c-2.789,0-4.184-1.281-4.184-3.842v-7.014H107v-2.379h1.695"/>
		<path fill="#CDCCCB" d="M125.043,153.775v13.07h-3.129v-13.07H125.043z"/>
		<path fill="#CDCCCB" d="M141.816,153.775l-3.746,13.07h-4.895l-3.938-13.07h3.322l1.723,6.029c0.236,0.838,0.455,1.65,0.656,2.434
			l0.314,1.217l0.314,1.217h0.068l0.287-1.217l0.287-1.203c0.219-0.91,0.424-1.723,0.615-2.434l1.613-6.043H141.816z"/>
		<path fill="#CDCCCB" d="M154.445,162.662h3.145v0.506c0,2.553-1.914,3.828-5.742,3.828c-2.598,0-4.297-0.443-5.098-1.326
			c-0.803-0.883-1.203-2.758-1.203-5.619c0-2.543,0.418-4.252,1.258-5.127c0.838-0.875,2.473-1.313,4.906-1.313
			c2.334,0,3.898,0.426,4.691,1.277c0.793,0.854,1.188,2.527,1.188,5.025v0.957h-8.844c-0.02,0.291-0.027,0.482-0.027,0.574
			c0,1.285,0.197,2.143,0.594,2.57s1.188,0.643,2.371,0.643c1.148,0,1.896-0.125,2.242-0.375
			C154.273,164.031,154.445,163.49,154.445,162.662z M154.473,158.957l-0.012-0.52c0-1.039-0.18-1.713-0.541-2.023
			s-1.143-0.465-2.346-0.465c-1.166,0-1.926,0.186-2.275,0.561s-0.525,1.189-0.525,2.447H154.473z"/>
	</g>
</g>
</svg>
