<?xml version="1.0" encoding="utf-8"?>
<!-- Generator: Adobe Illustrator 13.0.0, SVG Export Plug-In . SVG Version: 6.00 Build 14948)  -->
<!DOCTYPE svg PUBLIC "-//W3C//DTD SVG 1.1//EN" "http://www.w3.org/Graphics/SVG/1.1/DTD/svg11.dtd">
<svg version="1.1" id="Packaging" xmlns="http://www.w3.org/2000/svg" xmlns:xlink="http://www.w3.org/1999/xlink" x="0px" y="0px"
	 width="400px" height="70px" viewBox="0 0 400 70" enable-background="new 0 0 400 70" xml:space="preserve">
<g>
	<path fill="#777777" d="M140.077,15.15h13.05c4.966,0.034,8.741,0.667,11.325,1.9c2.583,1.234,3.875,4.734,3.875,10.5
		c0,0.467,0,0.942,0,1.425s-0.018,0.958-0.05,1.425c-0.034,0.967-0.142,1.917-0.325,2.85c-0.184,0.934-0.509,1.833-0.975,2.7
		c-0.8,1.532-1.95,2.559-3.45,3.075c-1.5,0.516-3.083,0.824-4.75,0.925c-0.434,0-0.875,0.009-1.325,0.024
		c-0.45,0.018-0.893,0.024-1.325,0.024c-0.034,0-0.059,0-0.075,0c-0.017,0-0.042,0-0.075,0c-0.267,0-0.534,0-0.8,0
		c-0.267,0-0.533,0-0.8,0h-5.35v8.5h-8.95V15.15L140.077,15.15z M154.626,32.25c1.866-0.066,3.083-0.316,3.65-0.75
		c0.566-0.433,0.85-1.517,0.85-3.25V27.8c0-1.933-0.208-3.291-0.625-4.075c-0.417-0.783-1.675-1.175-3.775-1.175h-5.7v9.7H154.626z"
		/>
	<path fill="#777777" d="M179.626,32.1h-7.7c0-3.433,1.008-5.475,3.025-6.125c2.017-0.65,4.425-0.975,7.225-0.975
		c3.267,0,6.008,0.417,8.225,1.25c2.216,0.833,3.325,3.233,3.325,7.2V48.5h-7.6l0.3-3.45h-0.3c-0.2,1.233-0.775,2.108-1.725,2.625
		c-0.95,0.519-1.992,0.825-3.125,0.925c-0.4,0.066-0.809,0.108-1.225,0.125c-0.417,0.018-0.809,0.025-1.175,0.025
		c-2.334,0-4.234-0.5-5.7-1.5c-1.467-1-2.2-2.768-2.2-5.3c0-3.101,0.8-5.142,2.4-6.125s3.766-1.475,6.5-1.475
		c0.133,0,0.275,0,0.425,0c0.15,0,0.292,0,0.425,0c1.033,0.034,2.025,0.2,2.975,0.5c0.95,0.3,1.658,0.984,2.125,2.05l0.3-0.051V32.6
		c0-1.133-0.259-1.908-0.775-2.325c-0.517-0.417-1.358-0.625-2.525-0.625c-1.1,0-1.892,0.15-2.375,0.45
		c-0.483,0.3-0.758,0.983-0.825,2.05V32.1L179.626,32.1z M178.626,41.3c0,1.269,0.383,2.009,1.15,2.226
		c0.766,0.218,1.633,0.324,2.6,0.324c0.966,0,1.833-0.141,2.6-0.425c0.767-0.282,1.15-0.991,1.15-2.125c0-0.065,0-0.125,0-0.175
		s0-0.092,0-0.125c0-0.268-0.034-0.518-0.1-0.75c-0.067-0.232-0.2-0.434-0.4-0.6c-0.268-0.2-0.575-0.352-0.925-0.45
		c-0.35-0.101-0.725-0.167-1.125-0.2c-0.267-0.033-0.542-0.05-0.825-0.05c-0.284,0-0.542,0-0.775,0
		c-0.934,0-1.725,0.134-2.375,0.399c-0.65,0.268-0.975,0.934-0.975,2V41.3z"/>
	<path fill="#777777" d="M212.576,39.2h7.4c0,3.434-0.635,5.884-1.9,7.35c-1.268,1.468-3.717,2.2-7.35,2.2
		c-4.233,0-7.459-0.592-9.676-1.775c-2.217-1.183-3.325-4.19-3.325-9.023c0-4.267,0.633-7.492,1.9-9.675
		c1.267-2.183,4.25-3.275,8.95-3.275c3.566,0,6.357,0.458,8.375,1.375c2.016,0.917,3.025,3.442,3.025,7.575l-7.351-0.05
		c0-1.233-0.233-2.075-0.7-2.525s-1.367-0.675-2.699-0.675c-1.768,0-2.858,0.408-3.275,1.225c-0.417,0.817-0.625,2.075-0.625,3.775
		v2.5c0,1.566,0.175,2.767,0.525,3.6c0.35,0.834,1.424,1.25,3.225,1.25c1.566,0,2.542-0.291,2.925-0.875
		c0.383-0.583,0.575-1.558,0.575-2.925V39.2L212.576,39.2z"/>
	<path fill="#777777" d="M230.925,33.95h1.351l4.6-8.8h8.4l-6.601,11.2l8.101,12.15h-8.9l-5.6-9.55h-1.351v9.55h-7.6V15.15h7.6
		V33.95z"/>
	<path fill="#777777" d="M256.925,32.1h-7.7c0-3.433,1.008-5.475,3.025-6.125S256.675,25,259.475,25c3.268,0,6.008,0.417,8.227,1.25
		c2.216,0.833,3.324,3.233,3.324,7.2V48.5h-7.601l0.3-3.45h-0.3c-0.2,1.233-0.774,2.108-1.725,2.625
		c-0.95,0.519-1.992,0.825-3.125,0.925c-0.4,0.066-0.81,0.108-1.226,0.125c-0.418,0.018-0.81,0.025-1.176,0.025
		c-2.333,0-4.232-0.5-5.699-1.5c-1.468-1-2.201-2.768-2.201-5.3c0-3.101,0.801-5.142,2.4-6.125c1.602-0.983,3.768-1.475,6.5-1.475
		c0.133,0,0.275,0,0.426,0c0.149,0,0.291,0,0.426,0c1.031,0.034,2.023,0.2,2.975,0.5c0.95,0.3,1.658,0.984,2.125,2.05l0.3-0.051
		V32.6c0-1.133-0.259-1.908-0.774-2.325c-0.518-0.417-1.358-0.625-2.524-0.625c-1.101,0-1.894,0.15-2.375,0.45
		c-0.483,0.3-0.759,0.983-0.825,2.05L256.925,32.1L256.925,32.1z M255.925,41.3c0,1.269,0.384,2.009,1.15,2.226
		c0.767,0.218,1.633,0.324,2.6,0.324c0.968,0,1.833-0.141,2.601-0.425c0.767-0.282,1.149-0.991,1.149-2.125c0-0.065,0-0.125,0-0.175
		s0-0.092,0-0.125c0-0.268-0.032-0.518-0.1-0.75s-0.2-0.434-0.4-0.6c-0.267-0.2-0.575-0.352-0.925-0.45
		c-0.35-0.101-0.725-0.167-1.125-0.2c-0.268-0.033-0.542-0.05-0.825-0.05c-0.282,0-0.542,0-0.774,0
		c-0.934,0-1.726,0.134-2.375,0.399c-0.649,0.268-0.976,0.934-0.976,2V41.3z"/>
	<path fill="#777777" d="M297.975,48c0,4.533-0.941,7.482-2.824,8.85c-1.885,1.367-5.01,2.051-9.375,2.051
		c-0.5,0-1.019-0.008-1.551-0.024c-0.533-0.019-1.066-0.042-1.601-0.075c-1.367-0.134-2.667-0.458-3.899-0.975
		c-1.232-0.518-2.101-1.426-2.601-2.727c-0.167-0.467-0.292-0.949-0.375-1.449s-0.125-1.018-0.125-1.551
		c0-0.133-0.008-0.273-0.024-0.425c-0.018-0.149-0.024-0.292-0.024-0.425c0-0.1,0-0.209,0-0.325s0-0.225,0-0.325h7.25
		c0,1.268,0.315,2.043,0.95,2.325c0.633,0.283,1.5,0.425,2.6,0.425c1.268,0,2.25-0.19,2.95-0.574c0.7-0.383,1.05-1.293,1.05-2.726
		V44.7h-0.35c-0.5,1.333-1.283,2.3-2.351,2.899c-1.067,0.601-2.284,0.899-3.649,0.899c-2.367,0-4.385-0.491-6.051-1.476
		c-1.666-0.982-2.649-2.774-2.949-5.375c-0.101-0.899-0.168-1.809-0.2-2.726c-0.033-0.916-0.05-1.841-0.05-2.774
		c0-3.267,0.49-5.941,1.475-8.024c0.982-2.083,3.375-3.125,7.176-3.125c1.801,0,3.25,0.284,4.35,0.85
		c1.101,0.567,1.968,1.733,2.601,3.5l0.351-0.05l-0.351-4.15h7.601V48H297.975z M282.425,38.25c0,1.334,0.199,2.4,0.601,3.2
		c0.4,0.8,1.5,1.2,3.3,1.2c1.866,0,2.991-0.45,3.375-1.352c0.383-0.898,0.575-2.031,0.575-3.398v-1.95
		c0-1.6-0.185-2.858-0.551-3.775c-0.367-0.916-1.533-1.375-3.5-1.375c-1.732,0-2.8,0.284-3.199,0.85
		c-0.4,0.567-0.601,1.65-0.601,3.25v1.45V38.25z"/>
	<path fill="#777777" d="M310.624,20.85h-7.601v-5.7h7.601V20.85z M310.624,48.5h-7.601V25.15h7.601V48.5z"/>
	<path fill="#777777" d="M323.023,25.15v4.25h0.301c0.566-1.566,1.391-2.691,2.475-3.375c1.083-0.683,2.441-1.025,4.075-1.025
		c2.433,0,4.399,0.517,5.899,1.55c1.5,1.034,2.25,2.884,2.25,5.55v16.4h-7.601V34.8c0-0.966-0.157-1.857-0.475-2.675
		c-0.317-0.816-1.075-1.225-2.275-1.225c-1.269,0-2.309,0.309-3.125,0.925c-0.817,0.617-1.225,1.625-1.225,3.025V48.5h-7.601V25.15
		H323.023z"/>
	<path fill="#777777" d="M365.073,48c0,4.533-0.942,7.482-2.825,8.85c-1.884,1.367-5.01,2.051-9.375,2.051
		c-0.5,0-1.018-0.008-1.55-0.024c-0.534-0.019-1.067-0.042-1.601-0.075c-1.367-0.134-2.668-0.458-3.899-0.975
		c-1.233-0.518-2.101-1.426-2.601-2.727c-0.168-0.467-0.293-0.949-0.375-1.449c-0.084-0.5-0.125-1.018-0.125-1.551
		c0-0.133-0.009-0.273-0.024-0.425c-0.019-0.149-0.025-0.292-0.025-0.425c0-0.1,0-0.209,0-0.325s0-0.225,0-0.325h7.25
		c0,1.268,0.316,2.043,0.95,2.325c0.633,0.283,1.5,0.425,2.6,0.425c1.268,0,2.25-0.19,2.95-0.574c0.7-0.383,1.05-1.293,1.05-2.726
		V44.7h-0.35c-0.5,1.333-1.283,2.3-2.35,2.899c-1.067,0.601-2.284,0.899-3.65,0.899c-2.367,0-4.384-0.491-6.05-1.476
		c-1.667-0.982-2.65-2.774-2.95-5.375c-0.1-0.899-0.167-1.809-0.2-2.726c-0.032-0.916-0.05-1.841-0.05-2.774
		c0-3.267,0.491-5.941,1.475-8.024s3.375-3.125,7.176-3.125c1.801,0,3.25,0.284,4.351,0.85c1.101,0.567,1.967,1.733,2.601,3.5
		l0.351-0.05l-0.351-4.15h7.601V48H365.073z M349.523,38.25c0,1.334,0.199,2.4,0.6,3.2s1.5,1.2,3.3,1.2
		c1.866,0,2.991-0.45,3.375-1.352c0.384-0.898,0.575-2.031,0.575-3.398v-1.95c0-1.6-0.184-2.858-0.55-3.775
		c-0.367-0.916-1.534-1.375-3.5-1.375c-1.733,0-2.8,0.284-3.2,0.85c-0.4,0.567-0.6,1.65-0.6,3.25v1.45V38.25z"/>
</g>
</svg>
