<?xml version="1.0" encoding="utf-8"?>
<!-- Generator: Adobe Illustrator 13.0.0, SVG Export Plug-In . SVG Version: 6.00 Build 14948)  -->
<!DOCTYPE svg PUBLIC "-//W3C//DTD SVG 1.1//EN" "http://www.w3.org/Graphics/SVG/1.1/DTD/svg11.dtd">
<svg version="1.1" id="Writing" xmlns="http://www.w3.org/2000/svg" xmlns:xlink="http://www.w3.org/1999/xlink" x="0px" y="0px"
	 width="400px" height="70px" viewBox="0 0 400 70" enable-background="new 0 0 400 70" xml:space="preserve">
<g>
	<path fill="#1C1C1C" d="M76.651,48.5h-12.85l-4.5-20.9h-0.35l-4.85,20.9h-12.7l-7.15-33.35h8.95l4.8,25.7h0.35l6.25-25.7h9.2
		l6,25.7h0.3l5.05-25.7h8.95L76.651,48.5z"/>
	<path fill="#1C1C1C" d="M93.05,25.15l-0.1,3.45h0.35c0.6-1.233,1.333-2.142,2.2-2.725C96.366,25.292,97.516,25,98.95,25
		c2.867,0,4.566,0.842,5.1,2.525c0.533,1.684,0.833,3.575,0.9,5.675c0,0.1,0,0.192,0,0.275s0,0.175,0,0.275
		c0.033,0.267,0.05,0.542,0.05,0.825c0,0.283,0.016,0.559,0.05,0.825H98.1c0.033-0.066,0.05-0.15,0.05-0.25s0-0.2,0-0.3
		c0-0.133,0-0.258,0-0.375c0-0.117,0-0.242,0-0.375c0-0.066,0-0.142,0-0.225s0-0.175,0-0.275c-0.034-0.7-0.175-1.341-0.425-1.925
		C97.476,31.092,96.9,30.8,96,30.8c-0.934,0-1.583,0.317-1.95,0.95c-0.367,0.634-0.6,1.333-0.7,2.1c0,0.2-0.009,0.409-0.025,0.625
		C93.308,34.692,93.3,34.9,93.3,35.1v13.4h-7.6V25.15H93.05z"/>
	<path fill="#1C1C1C" d="M115.5,20.85h-7.6v-5.7h7.6V20.85z M115.5,48.5h-7.6V25.15h7.6V48.5z"/>
	<path fill="#1C1C1C" d="M137.95,30.65h-8.85v9.45c0,0.103,0,0.186,0,0.25c0,0.067,0.018,0.135,0.051,0.2c0,0.101,0,0.2,0,0.3
		c0,0.103,0,0.2,0,0.301c0.033,0.533,0.142,1.019,0.324,1.449c0.184,0.436,0.608,0.65,1.275,0.65c0.898,0,1.466-0.232,1.7-0.7
		c0.231-0.466,0.366-1.1,0.399-1.899c0-0.133,0-0.273,0-0.426c0-0.147,0.017-0.291,0.049-0.425c0-0.133,0-0.274,0-0.425
		s0-0.291,0-0.425L139,38.9c0,0.199,0.008,0.392,0.023,0.574c0.018,0.184,0.025,0.357,0.025,0.523c0,0.167,0.008,0.342,0.025,0.523
		c0.016,0.186,0.023,0.358,0.023,0.524c0,2.899-0.642,4.899-1.925,6c-1.282,1.101-3.524,1.649-6.726,1.649
		c-2.633,0-4.783-0.407-6.449-1.225c-1.667-0.816-2.5-2.76-2.5-5.824v-11h-2.851v-5.5h2.851v-4.9h7.6v4.9h8.852L137.95,30.65
		L137.95,30.65z"/>
	<path fill="#1C1C1C" d="M149.699,20.85h-7.6v-5.7h7.6V20.85z M149.699,48.5h-7.6V25.15h7.6V48.5z"/>
	<path fill="#1C1C1C" d="M162.1,25.15v4.25h0.301c0.565-1.566,1.391-2.691,2.475-3.375c1.083-0.683,2.441-1.025,4.075-1.025
		c2.433,0,4.399,0.517,5.899,1.55c1.5,1.034,2.25,2.884,2.25,5.55v16.4h-7.601V34.8c0-0.966-0.158-1.857-0.476-2.675
		c-0.316-0.816-1.074-1.225-2.274-1.225c-1.269,0-2.31,0.309-3.125,0.925c-0.817,0.617-1.226,1.625-1.226,3.025V48.5h-7.601V25.15
		H162.1z"/>
	<path fill="#1C1C1C" d="M204.148,48c0,4.533-0.942,7.482-2.825,8.85c-1.884,1.367-5.009,2.051-9.375,2.051
		c-0.5,0-1.019-0.008-1.55-0.023c-0.534-0.02-1.067-0.042-1.602-0.075c-1.367-0.134-2.667-0.458-3.898-0.975
		c-1.233-0.519-2.102-1.427-2.602-2.728c-0.167-0.467-0.292-0.949-0.375-1.449s-0.125-1.018-0.125-1.551
		c0-0.133-0.008-0.272-0.023-0.425c-0.019-0.149-0.025-0.292-0.025-0.425c0-0.1,0-0.209,0-0.325s0-0.225,0-0.325h7.25
		c0,1.269,0.316,2.043,0.95,2.325c0.633,0.283,1.5,0.425,2.6,0.425c1.267,0,2.25-0.189,2.95-0.574c0.7-0.383,1.05-1.293,1.05-2.726
		V44.7h-0.35c-0.5,1.333-1.283,2.3-2.351,2.899c-1.066,0.601-2.283,0.898-3.649,0.898c-2.367,0-4.384-0.491-6.05-1.477
		c-1.668-0.981-2.65-2.773-2.95-5.375c-0.101-0.898-0.167-1.809-0.2-2.726c-0.033-0.916-0.05-1.841-0.05-2.774
		c0-3.267,0.491-5.94,1.475-8.023c0.984-2.083,3.375-3.125,7.177-3.125c1.799,0,3.25,0.284,4.35,0.85c1.1,0.567,1.967,1.733,2.6,3.5
		l0.352-0.05l-0.352-4.15h7.603V48H204.148z M188.6,38.25c0,1.334,0.198,2.4,0.6,3.2c0.4,0.8,1.5,1.2,3.3,1.2
		c1.866,0,2.991-0.45,3.375-1.353c0.383-0.897,0.575-2.03,0.575-3.397v-1.95c0-1.6-0.184-2.858-0.551-3.775
		c-0.366-0.916-1.533-1.375-3.5-1.375c-1.732,0-2.799,0.284-3.199,0.85c-0.4,0.567-0.6,1.65-0.6,3.25v1.45V38.25z"/>
</g>
</svg>
